<svg xmlns="http://www.w3.org/2000/svg" xmlns:xlink="http://www.w3.org/1999/xlink" width="512" height="512" viewBox="0 0 512 512">
  <defs>
    <linearGradient id="linear-gradient" x1="0.043" y1="0.715" x2="0.758" gradientUnits="objectBoundingBox">
      <stop offset="0.026" stop-color="#f20050"/>
      <stop offset="0.948" stop-color="#e8417b"/>
    </linearGradient>
    <linearGradient id="linear-gradient-2" x1="0.5" y1="0.319" x2="0.5" y2="0.975" gradientUnits="objectBoundingBox">
      <stop offset="0" stop-color="#4700eb"/>
      <stop offset="1" stop-color="#7a40ff"/>
    </linearGradient>
    <linearGradient id="linear-gradient-3" x1="0.144" y1="0.988" x2="0.825" y2="0.053" gradientUnits="objectBoundingBox">
      <stop offset="0.2" stop-color="#f20050"/>
      <stop offset="0.8" stop-color="#4700eb"/>
    </linearGradient>
    <clipPath id="clip-wassup-luncherIcon">
      <rect width="512" height="512"/>
    </clipPath>
  </defs>
  <g id="wassup-luncherIcon" clip-path="url(#clip-wassup-luncherIcon)">
    <rect width="512" height="512" fill="#fff"/>
    <g id="luncher_icon">
      <rect id="luncher_bg" width="512" height="512"/>
      <circle id="타원_189" data-name="타원 189" cx="112.5" cy="112.5" r="112.5" transform="translate(64 143)" fill="#ef145d"/>
      <circle id="타원_190" data-name="타원 190" cx="110.5" cy="110.5" r="110.5" transform="translate(225 144)" fill="#4700eb"/>
      <g id="그룹_571" data-name="그룹 571" transform="translate(64 143)">
        <path id="패스_664" data-name="패스 664" d="M3103.972,708.32A112.622,112.622,0,0,0,2944.7,867.592l79.636-79.635Z" transform="translate(-2911.715 -675.333)" fill="url(#linear-gradient)"/>
        <path id="패스_665" data-name="패스 665" d="M3156.026,689.924l-79.635,79.637L2996.753,849.2a112.623,112.623,0,1,0,159.273-159.272Z" transform="translate(-2804.496 -656.937)" fill="url(#linear-gradient-2)"/>
        <path id="패스_666" data-name="패스 666" d="M3085.576,708.32l-79.635,79.637-79.635,79.635a112.619,112.619,0,0,0,159.27,0l79.638-79.635,79.635-79.637A112.623,112.623,0,0,0,3085.576,708.32Z" transform="translate(-2893.32 -675.333)" fill="url(#linear-gradient-3)"/>
      </g>
    </g>
  </g>
</svg>
