<svg id="wassup-logo" xmlns="http://www.w3.org/2000/svg" width="455.061" height="161.735" viewBox="0 0 455.061 161.735">
  <path id="패스_687" data-name="패스 687" d="M375.37,99.4c-8.687-8.542-25.551-6.205-25.551-6.205-19.93,2.409-20.952,16.645-20.952,16.645a17.38,17.38,0,0,0,2.138,11.5,28.5,28.5,0,0,0,3.534,4.739C340.4,131.8,353.688,140.5,353.688,140.5a9.877,9.877,0,0,1,4.819,8.833c-.877,9.053-11.535,6.644-11.535,6.644-8.687-1.168-6.935-15.4-6.935-15.4-2.271-1.968-5.939-2.3-7.985-2.312a14.963,14.963,0,0,0-2.867.494c-4.849,1.8-5.932,6.777-6.11,9.354a31.172,31.172,0,0,0,.236,4.443c1.456,8.959,10.059,13.122,13.671,14.493a28.213,28.213,0,0,0,2.85.872c6.42,1.455,15.609.1,15.609.1,16.356-1.775,20.754-10.876,21.922-15.151a24.216,24.216,0,0,0,.6-3.76,22.359,22.359,0,0,0-2.743-11.806,36.4,36.4,0,0,0-2.843-4.428c-5.5-6.652-19.861-15.592-19.861-15.592-8.17-5.692-3.945-9.861-1.592-11.467a9.327,9.327,0,0,1,2.406-1.034,8.153,8.153,0,0,1,8.554,3.755,11.563,11.563,0,0,1,.9,1.962l.533,1.745a8.566,8.566,0,0,0,4.288,5.261,14.044,14.044,0,0,0,2.129.863c4.259,1.2,7.513-1.647,8.778-3.008a8.076,8.076,0,0,0,.968-1.405C383.181,106.44,375.37,99.4,375.37,99.4Z" transform="translate(-64.136 -62.466)" fill="#5c1af0"/>
  <path id="패스_688" data-name="패스 688" d="M339.6,99.694c-8.687-8.542-25.551-6.205-25.551-6.205C294.117,95.9,293.1,110.134,293.1,110.134a17.38,17.38,0,0,0,2.138,11.5,28.427,28.427,0,0,0,3.534,4.739c5.862,5.719,19.149,14.421,19.149,14.421a9.88,9.88,0,0,1,4.819,8.833c-.877,9.053-11.535,6.644-11.535,6.644-8.687-1.168-6.935-15.4-6.935-15.4-2.271-1.968-5.939-2.3-7.986-2.312a15,15,0,0,0-2.867.494c-4.848,1.8-5.931,6.777-6.109,9.354a27.562,27.562,0,0,0,.088,2.988c-3.013,2.076-7.62,4.062-10.042-.861a8.861,8.861,0,0,1-.815-4.36,167.5,167.5,0,0,1,2.32-20.861c.366-1.991,1.9-8.368,2.081-9.61.6-4.211,1.026-14-6.878-18.862,0,0-7.8-5.332-20.852-5.189,0,0-14.493-.561-23.394,6.944a20.056,20.056,0,0,0-1.519,1.42,13.189,13.189,0,0,0-1.182,1.494c-1.514,2.488-6.326,11.542,1.776,14.582,7.385,2.77,11.528-1.542,13.027-3.642.44-.616.964-1.788,1.565-2.845,1.573-2.774,5.121-7.679,10.183-6.83,0,0,8.208-.147,7.751,12.146l-.911,6.731s-19.326-1.634-29.535,5.177a41.8,41.8,0,0,0-4.076,3.275c-2.83,2.719-7.75,9.343-6.1,21.546,0,0,2.317,15.076,17.365,15.661s20.519-10.536,20.519-10.536.178,9.226,13.129,10.133c.324.022,2.634.065,2.958.047A23.67,23.67,0,0,0,290.2,159.29c3.247,4.622,8.416,7.065,11.014,8.05a28.216,28.216,0,0,0,2.85.872c6.419,1.455,15.609.1,15.609.1,16.356-1.775,20.754-10.876,21.922-15.151a24.178,24.178,0,0,0,.6-3.76,22.348,22.348,0,0,0-2.741-11.806,36.4,36.4,0,0,0-2.843-4.428c-5.5-6.652-19.861-15.592-19.861-15.592-8.17-5.692-3.945-9.861-1.592-11.467a9.327,9.327,0,0,1,2.406-1.034,8.154,8.154,0,0,1,8.554,3.755,11.628,11.628,0,0,1,.9,1.962l.533,1.745a8.567,8.567,0,0,0,4.289,5.261,14.044,14.044,0,0,0,2.129.863c4.259,1.2,7.512-1.647,8.776-3.008a8.091,8.091,0,0,0,.969-1.405C347.409,106.736,339.6,99.694,339.6,99.694Zm-82.234,41.712c-4.5,11.854-11.609,11.561-11.609,11.561-8.207.732-5.776-11.414-5.776-11.414,3.192-12,19.456-9.951,19.456-9.951Z" transform="translate(-88.236 -62.762)" fill="#5c1af0"/>
  <path id="패스_689" data-name="패스 689" d="M239.458,76.032c-3.311-4.506-9.682-9.407-21.268-7.234,0,0-8.436,2.615-10.355,7.319,0,0,11.352,15.042,11.031,34.752-.973,11.855-3.527,40.7-18.128,46.442-1.236.487-4.311,1.048-6.328-.08-2.3-1.289-4.959-4.951-3.716-13.089l6.071-38.564s3.348-14.7-4.107-19.64c0,0-11.605-7.32-25.531,1.25.368,2.369,4.5,50.22-9.21,65.892-2.115,2.451-4.292,4.973-10.944,4.322,0,0-7.52-.762-5.021-14.331,0,0,6.56-45.984,5.714-56.776-.8-10.24-5.178-18.381-17.14-18.029,0,0-11.962,0-17.14,9.28,0,0,8.76,7.959,7.546,25.09-.028.4-.074.8-.131,1.2-.706,4.988-5.667,40.723-4.38,51.733a22.911,22.911,0,0,0,.672,2.85c1.734,5.894,7.472,18.788,24.324,17.682,0,0,15.355.536,26.96-16.425,0,0,6.562,16.522,23.211,16.492,0,0,29.236,2.1,44.457-36.668,0,0,8.5-20.094,6.82-53.555A18.232,18.232,0,0,0,239.458,76.032Z" transform="translate(-113.386 -68.255)" fill="#5c1af0"/>
  <path id="패스_690" data-name="패스 690" d="M481.872,92.926s-11.492.415-21.038,14.989v-.006s2.45-12.072-6.962-14.075c0,0-6.729-1.35-12.409,2.27a420.624,420.624,0,0,1-1.034,53.32c-2.309,2.16-6.646,5.466-10.589,4.295a4.266,4.266,0,0,1-2.325-1.52c-.916-1.547-1.761-5.415.153-15.055L433.5,107.52s3.022-14.62-9.141-14.536c0,0-8.039.33-11.342,4.295,0,0,2.4,9.328-1.056,24.3-.242,1.048-1.022,4.469-1.447,6.439-1.684,7.8-6.81,27.072-16.218,26.193,0,0-5.163-.619-3.591-12.656.052-.394.942-5.666.942-5.666l5.621-32.665s.834-7.336-5.052-9.735a14.457,14.457,0,0,0-3.724-.59c-3.056.022-8.944.6-12.036,4.489,0,0,1.284,8.3-2.322,32.375-.2,1.346-.935,5.315-1.277,7.148-1.11,5.937-2.838,19.268,2.445,25.544A23.7,23.7,0,0,0,378.079,165c2.954,2.207,10.541,6.22,22.277,1.105,0,0,4.846-2.092,9.8-9.029,0,0,1.982,13.545,18.17,10.682a33.765,33.765,0,0,0,10.377-4.2c-.021.136-.041.277-.062.412-.209,1.307-1.8,8.239-2.375,10.321-4.643,16.957-9.494,29.447-19.241,43.638,23.8,20.437,37.927-12.427,41.832-50.6l.016-.11a21.169,21.169,0,0,0,13.09,5.053c.8.03,5.153-.1,6.429-.268C513.663,167.27,519.994,91.326,481.872,92.926Zm3.784,34.355c-2.6,29.689-14.075,30.27-14.075,30.27-8.172.909-10.682-3.027-10.682-3.027.063-3.784,1.147-17.1,1.147-17.1,3.87-29.156,15.285-29.815,15.285-29.815C487.69,107.606,485.655,127.281,485.655,127.281Z" transform="translate(-52.716 -62.466)" fill="#5c1af0"/>
</svg>
