<?xml version="1.0" encoding="utf-8"?>
<!-- Generator: Adobe Illustrator 25.4.0, SVG Export Plug-In . SVG Version: 6.00 Build 0)  -->
<svg version="1.1" id="Layer_1" xmlns="http://www.w3.org/2000/svg" xmlns:xlink="http://www.w3.org/1999/xlink" x="0px" y="0px"
	 viewBox="0 0 817.4 181" style="enable-background:new 0 0 817.4 181;" xml:space="preserve">
<style type="text/css">
	.st0{fill:#060A30;}
	.st1{fill:none;stroke:#F9ED24;stroke-miterlimit:10;}
	.st2{fill:none;stroke:#F6EC25;stroke-miterlimit:10;}
	.st3{fill:none;stroke:#F3EA27;stroke-miterlimit:10;}
	.st4{fill:none;stroke:#F0E928;stroke-miterlimit:10;}
	.st5{fill:none;stroke:#EDE82A;stroke-miterlimit:10;}
	.st6{fill:none;stroke:#EAE72B;stroke-miterlimit:10;}
	.st7{fill:none;stroke:#E7E62C;stroke-miterlimit:10;}
	.st8{fill:none;stroke:#E4E52D;stroke-miterlimit:10;}
	.st9{fill:none;stroke:#E1E32E;stroke-miterlimit:10;}
	.st10{fill:none;stroke:#DEE22F;stroke-miterlimit:10;}
	.st11{fill:none;stroke:#DBE131;stroke-miterlimit:10;}
	.st12{fill:none;stroke:#D8E032;stroke-miterlimit:10;}
	.st13{fill:none;stroke:#D5DF33;stroke-miterlimit:10;}
	.st14{fill:none;stroke:#D2DE34;stroke-miterlimit:10;}
	.st15{fill:none;stroke:#CFDD34;stroke-miterlimit:10;}
	.st16{fill:none;stroke:#CBDC35;stroke-miterlimit:10;}
	.st17{fill:none;stroke:#C8DA36;stroke-miterlimit:10;}
	.st18{fill:none;stroke:#C5D937;stroke-miterlimit:10;}
	.st19{fill:none;stroke:#C2D838;stroke-miterlimit:10;}
	.st20{fill:none;stroke:#BFD739;stroke-miterlimit:10;}
	.st21{fill:none;stroke:#BCD639;stroke-miterlimit:10;}
	.st22{fill:none;stroke:#B9D53A;stroke-miterlimit:10;}
	.st23{fill:none;stroke:#B6D43B;stroke-miterlimit:10;}
	.st24{fill:none;stroke:#B2D33B;stroke-miterlimit:10;}
	.st25{fill:none;stroke:#AFD23C;stroke-miterlimit:10;}
	.st26{fill:none;stroke:#ACD03D;stroke-miterlimit:10;}
	.st27{fill:none;stroke:#A9CF3D;stroke-miterlimit:10;}
	.st28{fill:none;stroke:#A5CE3E;stroke-miterlimit:10;}
	.st29{fill:none;stroke:#A2CD3F;stroke-miterlimit:10;}
	.st30{fill:none;stroke:#9FCC3F;stroke-miterlimit:10;}
	.st31{fill:none;stroke:#9CCB40;stroke-miterlimit:10;}
	.st32{fill:none;stroke:#99CA40;stroke-miterlimit:10;}
	.st33{fill:none;stroke:#95C941;stroke-miterlimit:10;}
	.st34{fill:none;stroke:#92C841;stroke-miterlimit:10;}
	.st35{fill:none;stroke:#8FC742;stroke-miterlimit:10;}
	.st36{fill:none;stroke:#8BC642;stroke-miterlimit:10;}
	.st37{fill:none;stroke:#88C543;stroke-miterlimit:10;}
	.st38{fill:none;stroke:#84C443;stroke-miterlimit:10;}
	.st39{fill:none;stroke:#81C344;stroke-miterlimit:10;}
	.st40{fill:none;stroke:#7EC244;stroke-miterlimit:10;}
	.st41{fill:none;stroke:#7AC144;stroke-miterlimit:10;}
	.st42{fill:none;stroke:#76C045;stroke-miterlimit:10;}
	.st43{fill:none;stroke:#73BF45;stroke-miterlimit:10;}
	.st44{fill:none;stroke:#6FBE46;stroke-miterlimit:10;}
	.st45{fill:none;stroke:#6BBD46;stroke-miterlimit:10;}
	.st46{fill:none;stroke:#67BD46;stroke-miterlimit:10;}
	.st47{fill:none;stroke:#62BC47;stroke-miterlimit:10;}
	.st48{fill:none;stroke:#5EBB47;stroke-miterlimit:10;}
	.st49{fill:none;stroke:#5ABA47;stroke-miterlimit:10;}
	.st50{fill:none;stroke:#55B948;stroke-miterlimit:10;}
	.st51{fill:none;stroke:#50B848;stroke-miterlimit:10;}
	.st52{fill:none;stroke:#4BB749;stroke-miterlimit:10;}
	.st53{fill:url(#SVGID_1_);}
	.st54{fill:url(#SVGID_00000183936469707329312020000011956989681902970504_);}
	.st55{fill:url(#SVGID_00000124149968933045473000000012962030297550850709_);}
	.st56{fill:url(#SVGID_00000098208828426987529700000018215871589890263475_);}
	.st57{fill:url(#SVGID_00000088122329556798235470000004027029619368057525_);}
</style>
<g>
	<path class="st0" d="M494.8,64c-22.9-4.3-42.7,15.4-38.3,38.3c2.4,12.8,12.8,23.2,25.6,25.6c22.9,4.3,42.7-15.4,38.3-38.3
		C518,76.8,507.6,66.4,494.8,64z M491.4,110.7c-10.6,2-19.7-7.1-17.7-17.7c1.1-5.9,5.9-10.7,11.8-11.8c10.6-2,19.7,7.1,17.7,17.7
		C502.1,104.8,497.3,109.6,491.4,110.7z"/>
	<path class="st0" d="M419.5,64c-22.9-4.3-42.7,15.4-38.3,38.3c2.4,12.8,12.8,23.2,25.6,25.6c22.9,4.3,42.7-15.4,38.3-38.3
		C442.6,76.8,432.3,66.4,419.5,64z M416,110.7c-10.6,2-19.7-7.1-17.7-17.7c1.1-5.9,5.9-10.7,11.8-11.8c10.6-2,19.7,7.1,17.7,17.7
		C426.7,104.8,421.9,109.6,416,110.7z"/>
	<path class="st0" d="M264.6,63.4h-1.5c-9.6,0-17.7,6.8-19.5,15.9c-4-9.3-13.3-15.9-24.1-15.9h-1.5c-7.5,0-14,4.1-17.4,10.2V63.4
		h-20v65.1h17.7h2.4l0-34.9c0-6.1,4.1-11.8,10.2-12.9c7.9-1.4,14.9,4.6,14.9,12.3v35.6h20.1l0-34.9c0-6.1,4.1-11.8,10.2-12.9
		c7.9-1.4,14.9,4.6,14.9,12.3v35.6h19.9c0,0,0.1-0.1,0.1-0.1V89.5C290.9,75.1,279.1,63.4,264.6,63.4z"/>
	<polygon class="st0" points="724.7,63.4 709.7,105.8 694.8,63.4 677.2,63.4 701.2,128.5 709.7,128.5 718.9,128.5 742.3,63.4 	"/>
	<path class="st0" d="M569.8,63.4h-1.5c-7.5,0-14,4.1-17.4,10.3V63.4h-20v65.1h17.6h2.4l0-34.9c0-6.1,4.1-11.8,10.2-12.9
		c7.9-1.4,14.9,4.6,14.9,12.3v35.5h20c0,0,0.1-0.1,0.1-0.1V89.6C596,75.1,584.3,63.4,569.8,63.4z"/>
	<path class="st0" d="M786.6,108.3c-2.5,3.6-6.4,6-10.8,6c-6.7,0-12.2-5.4-13.3-12.5h3.3h23.3h18.3c1.5-8.1,0.5-17-8.5-27.1
		c-5.9-6.7-14.2-11.2-23.2-11.3c-19.1-0.2-34.5,16.1-32.8,35.5c1.3,15.1,13.5,27.7,28.5,29.4c15.3,1.8,28.7-7,34-20H786.6z
		 M775.8,79.4c6.6,0,12.2,5.3,13.3,12.3h-26.6C763.7,84.8,769.2,79.4,775.8,79.4z"/>
	<path class="st0" d="M350.5,63.4l0,6c-6.5-4.7-14.9-7-23.8-5.5c-12.4,2.1-22.5,12-25.1,24.3c-1.5,7.2-0.4,13.9,2.2,19.8
		c3,6.6,8.4,12,15,15.1c4.1,1.9,8.6,3,13.4,3c7.3,0,14-2.5,19.3-6.7v5.7c0,7.2-4.7,13.8-11.7,15.3c-7.8,1.7-14.9-2.7-17.4-9.4h-19.6
		c2.5,15.5,15.9,27.3,32.1,27.3h2.9c18,0,32.6-14.6,32.6-32.6V124v-18.5l0-42.2H350.5z M346.9,105.5c-2.7,2.6-6.4,4.2-10.4,4.2
		c-4.1,0-7.7-1.6-10.4-4.2c-3.5-3.3-5.3-8.3-4.3-13.6c1.1-6,6-10.9,12-12c9.5-1.7,17.8,5.6,17.8,14.8
		C351.5,99,349.7,102.8,346.9,105.5z"/>
	<path class="st0" d="M637.6,108.5H637c-3.4,0-6.1-2.7-6.1-6.1V78.8v-1.6V46.3h-20v34.2v20.9v2.1c0,13.9,11.2,25.1,25.1,25.1h1.7
		C637.7,128.4,637.6,108.5,637.6,108.5z"/>
	<rect x="647.2" y="63.4" class="st0" width="20" height="65.1"/>
	<path class="st0" d="M657.8,56.8c5.8,0,10.5-4.7,10.5-10.5h-21C647.2,52.1,652,56.8,657.8,56.8z"/>
</g>
<g>
	<g>
		<path class="st1" d="M136.8,71.9L48.4,18C32.7,8.9,13,20.3,13,38.4v107.8c0,18.2,19.7,29.5,35.4,20.4l88.4-53.9
			C152.5,103.7,152.5,81,136.8,71.9z"/>
		<path class="st2" d="M136.1,112.5l-87.6,53.4c-15.5,9-34.9-2.2-34.9-20.2V39C13.6,21,33,9.8,48.5,18.8l87.6,53.4
			C151.7,81.1,151.7,103.5,136.1,112.5z"/>
		<path class="st3" d="M135.5,112.2l-86.8,52.9c-15.3,8.8-34.5-2.2-34.5-19.9V39.5c0-17.7,19.1-28.7,34.5-19.9l86.8,52.9
			C150.8,81.3,150.8,103.4,135.5,112.2z"/>
		<path class="st4" d="M134.8,112l-86,52.3c-15.1,8.7-34-2.2-34-19.6V40c0-17.5,18.9-28.4,34-19.6l86,52.3
			C149.9,81.4,149.9,103.3,134.8,112z"/>
		<path class="st5" d="M134.1,111.7L49,163.5c-14.9,8.6-33.5-2.2-33.5-19.4V40.5c0-17.2,18.6-28,33.5-19.4L134.1,73
			C149.1,81.6,149.1,103.1,134.1,111.7z"/>
		<path class="st6" d="M133.5,111.4l-84.4,51.3c-14.7,8.5-33.1-2.1-33.1-19.1V41c0-17,18.4-27.6,33.1-19.1l84.4,51.3
			C148.2,81.7,148.2,103,133.5,111.4z"/>
		<path class="st7" d="M132.8,111.2L49.3,162c-14.5,8.4-32.6-2.1-32.6-18.8V41.6c0-16.7,18.1-27.2,32.6-18.8l83.6,50.8
			C147.3,81.9,147.3,102.8,132.8,111.2z"/>
		<path class="st8" d="M132.2,110.9l-82.8,50.3c-14.3,8.3-32.2-2.1-32.2-18.6V42.1c0-16.5,17.9-26.8,32.2-18.6l82.8,50.3
			C146.5,82,146.5,102.7,132.2,110.9z"/>
		<path class="st9" d="M131.5,110.6l-82,49.7c-14.1,8.1-31.7-2-31.7-18.3V42.6c0-16.3,17.6-26.4,31.7-18.3l82,49.7
			C145.6,82.2,145.6,102.5,131.5,110.6z"/>
		<path class="st10" d="M130.9,110.4l-81.2,49.2c-13.9,8-31.2-2-31.2-18V43.1c0-16,17.3-26,31.2-18l81.2,49.2
			C144.7,82.3,144.7,102.4,130.9,110.4z"/>
		<path class="st11" d="M130.2,110.1l-80.4,48.7c-13.7,7.9-30.8-2-30.8-17.8V43.6c0-15.8,17.1-25.7,30.8-17.8l80.4,48.7
			C143.9,82.5,143.9,102.2,130.2,110.1z"/>
		<path class="st12" d="M129.5,109.8L50,158c-13.5,7.8-30.3-1.9-30.3-17.5V44.2c0-15.5,16.8-25.3,30.3-17.5l79.6,48.2
			C143,82.6,143,102.1,129.5,109.8z"/>
		<path class="st13" d="M128.9,109.6l-78.8,47.7c-13.3,7.7-29.8-1.9-29.8-17.2V44.7c0-15.3,16.6-24.9,29.8-17.2l78.8,47.7
			C142.1,82.8,142.1,101.9,128.9,109.6z"/>
		<path class="st14" d="M128.2,109.3l-78,47.1c-13.1,7.5-29.4-1.9-29.4-17V45.2c0-15.1,16.3-24.5,29.4-17l78,47.1
			C141.3,82.9,141.3,101.8,128.2,109.3z"/>
		<path class="st15" d="M127.6,109l-77.2,46.6c-12.8,7.4-28.9-1.9-28.9-16.7V45.7c0-14.8,16.1-24.1,28.9-16.7l77.2,46.6
			C140.4,83.1,140.4,101.6,127.6,109z"/>
		<path class="st16" d="M126.9,108.8l-76.4,46.1c-12.6,7.3-28.4-1.8-28.4-16.4V46.2c0-14.6,15.8-23.7,28.4-16.4l76.4,46.1
			C139.5,83.2,139.5,101.5,126.9,108.8z"/>
		<path class="st17" d="M126.2,108.5l-75.6,45.6c-12.4,7.2-28-1.8-28-16.2V46.8c0-14.4,15.5-23.3,28-16.2l75.6,45.6
			C138.7,83.4,138.7,101.3,126.2,108.5z"/>
		<path class="st18" d="M125.6,108.2l-74.8,45.1c-12.2,7.1-27.5-1.8-27.5-15.9V47.3c0-14.1,15.3-23,27.5-15.9l74.8,45.1
			C137.8,83.5,137.8,101.2,125.6,108.2z"/>
		<path class="st19" d="M124.9,108L51,152.5c-12,6.9-27.1-1.7-27.1-15.6V47.8c0-13.9,15-22.6,27.1-15.6l73.9,44.6
			C137,83.7,137,101,124.9,108z"/>
		<path class="st20" d="M124.3,107.7l-73.1,44c-11.8,6.8-26.6-1.7-26.6-15.4V48.3c0-13.6,14.8-22.2,26.6-15.4l73.1,44
			C136.1,83.8,136.1,100.9,124.3,107.7z"/>
		<path class="st21" d="M123.6,107.4l-72.3,43.5c-11.6,6.7-26.1-1.7-26.1-15.1v-87c0-13.4,14.5-21.8,26.1-15.1l72.3,43.5
			C135.2,84,135.2,100.7,123.6,107.4z"/>
		<path class="st22" d="M123,107.2l-71.5,43c-11.4,6.6-25.7-1.6-25.7-14.8v-86c0-13.2,14.3-21.4,25.7-14.8l71.5,43
			C134.4,84.1,134.4,100.6,123,107.2z"/>
		<path class="st23" d="M122.3,106.9l-70.7,42.5c-11.2,6.5-25.2-1.6-25.2-14.6V49.9c0-12.9,14-21,25.2-14.6l70.7,42.5
			C133.5,84.3,133.5,100.4,122.3,106.9z"/>
		<path class="st24" d="M121.6,106.6l-69.9,42c-11,6.3-24.7-1.6-24.7-14.3V50.4c0-12.7,13.7-20.6,24.7-14.3l69.9,42
			C132.6,84.4,132.6,100.3,121.6,106.6z"/>
		<path class="st25" d="M121,106.4l-69.1,41.4c-10.8,6.2-24.3-1.6-24.3-14V50.9c0-12.5,13.5-20.2,24.3-14L121,78.3
			C131.8,84.6,131.8,100.1,121,106.4z"/>
		<path class="st26" d="M120.3,106.1L52,147c-10.6,6.1-23.8-1.5-23.8-13.8V51.4c0-12.2,13.2-19.9,23.8-13.7l68.3,40.9
			C130.9,84.7,130.9,100,120.3,106.1z"/>
		<path class="st27" d="M119.7,105.8l-67.5,40.4c-10.4,6-23.4-1.5-23.4-13.5V51.9c0-12,13-19.5,23.4-13.5l67.5,40.4
			C130,84.9,130,99.8,119.7,105.8z"/>
		<path class="st28" d="M119,105.6l-66.7,39.9c-10.2,5.9-22.9-1.5-22.9-13.2V52.5c0-11.7,12.7-19.1,22.9-13.2L119,79.1
			C129.2,85,129.2,99.7,119,105.6z"/>
		<path class="st29" d="M118.3,105.3l-65.9,39.4c-10,5.8-22.4-1.4-22.4-12.9V53C30,41.5,42.5,34.3,52.4,40l65.9,39.4
			C128.3,85.1,128.3,99.5,118.3,105.3z"/>
		<path class="st30" d="M117.7,105l-65.1,38.8c-9.8,5.6-22-1.4-22-12.7V53.5c0-11.3,12.2-18.3,22-12.7l65.1,38.8
			C127.4,85.3,127.4,99.4,117.7,105z"/>
		<path class="st31" d="M117,104.8l-64.3,38.3c-9.6,5.5-21.5-1.4-21.5-12.4V54c0-11,11.9-17.9,21.5-12.4L117,79.9
			C126.6,85.4,126.6,99.2,117,104.8z"/>
		<path class="st32" d="M116.4,104.5l-63.5,37.8c-9.3,5.4-21-1.3-21-12.1V54.5c0-10.8,11.7-17.5,21-12.1l63.5,37.8
			C125.7,85.6,125.7,99.1,116.4,104.5z"/>
		<path class="st33" d="M115.7,104.2L53,141.5c-9.1,5.3-20.6-1.3-20.6-11.9V55.1c0-10.6,11.4-17.2,20.6-11.9l62.7,37.3
			C124.9,85.7,124.9,98.9,115.7,104.2z"/>
		<path class="st34" d="M115.1,104l-61.9,36.8c-8.9,5.2-20.1-1.3-20.1-11.6V55.6C33,45.3,44.2,38.8,53.1,44l61.9,36.8
			C124,85.9,124,98.8,115.1,104z"/>
		<path class="st35" d="M114.4,103.7l-61.1,36.2c-8.7,5-19.6-1.3-19.6-11.3V56.1c0-10.1,10.9-16.4,19.6-11.3L114.4,81
			C123.1,86,123.1,98.6,114.4,103.7z"/>
		<path class="st36" d="M113.7,103.4l-60.3,35.7c-8.5,4.9-19.2-1.2-19.2-11.1V56.6c0-9.8,10.7-16,19.2-11.1l60.3,35.7
			C122.3,86.2,122.3,98.5,113.7,103.4z"/>
		<path class="st37" d="M113.1,103.2l-59.5,35.2c-8.3,4.8-18.7-1.2-18.7-10.8V57.1c0-9.6,10.4-15.6,18.7-10.8l59.5,35.2
			C121.4,86.3,121.4,98.3,113.1,103.2z"/>
		<path class="st38" d="M112.4,102.9l-58.7,34.7c-8.1,4.7-18.3-1.2-18.3-10.5V57.7c0-9.4,10.1-15.2,18.3-10.5l58.7,34.7
			C120.5,86.5,120.5,98.2,112.4,102.9z"/>
		<path class="st39" d="M111.8,102.6l-57.9,34.2c-7.9,4.6-17.8-1.1-17.8-10.3V58.2c0-9.1,9.9-14.8,17.8-10.3l57.9,34.2
			C119.7,86.6,119.7,98.1,111.8,102.6z"/>
		<path class="st40" d="M111.1,102.4L54,136c-7.7,4.4-17.3-1.1-17.3-10V58.7c0-8.9,9.6-14.5,17.3-10l57.1,33.6
			C118.8,86.8,118.8,97.9,111.1,102.4z"/>
		<path class="st41" d="M110.4,102.1l-56.3,33.1c-7.5,4.3-16.9-1.1-16.9-9.7V59.2c0-8.7,9.4-14.1,16.9-9.7l56.3,33.1
			C117.9,86.9,117.9,97.8,110.4,102.1z"/>
		<path class="st42" d="M109.8,101.8l-55.5,32.6c-7.3,4.2-16.4-1.1-16.4-9.5V59.7c0-8.4,9.1-13.7,16.4-9.5l55.5,32.6
			C117.1,87.1,117.1,97.6,109.8,101.8z"/>
		<path class="st43" d="M109.1,101.5l-54.7,32.1c-7.1,4.1-15.9-1-15.9-9.2V60.3c0-8.2,8.9-13.3,15.9-9.2l54.7,32.1
			C116.2,87.2,116.2,97.5,109.1,101.5z"/>
		<path class="st44" d="M108.5,101.3l-53.9,31.6c-6.9,4-15.5-1-15.5-8.9V60.8c0-7.9,8.6-12.9,15.5-8.9l53.9,31.6
			C115.3,87.4,115.3,97.3,108.5,101.3z"/>
		<path class="st45" d="M107.8,101l-53.1,31c-6.7,3.9-15-1-15-8.7V61.3c0-7.7,8.3-12.5,15-8.7l53.1,31
			C114.5,87.5,114.5,97.2,107.8,101z"/>
		<path class="st46" d="M107.1,100.7l-52.3,30.5c-6.5,3.7-14.6-0.9-14.6-8.4V61.8c0-7.5,8.1-12.1,14.6-8.4l52.3,30.5
			C113.6,87.7,113.6,97,107.1,100.7z"/>
		<path class="st47" d="M106.5,100.5l-51.5,30c-6.3,3.6-14.1-0.9-14.1-8.1v-60c0-7.2,7.8-11.8,14.1-8.1l51.5,30
			C112.8,87.8,112.8,96.9,106.5,100.5z"/>
		<path class="st48" d="M105.8,100.2l-50.7,29.5c-6.1,3.5-13.6-0.9-13.6-7.9v-59c0-7,7.6-11.4,13.6-7.9l50.7,29.5
			C111.9,88,111.9,96.7,105.8,100.2z"/>
		<path class="st49" d="M105.2,99.9l-49.9,29c-5.9,3.4-13.2-0.8-13.2-7.6V63.4c0-6.8,7.3-11,13.2-7.6l49.9,29
			C111,88.1,111,96.6,105.2,99.9z"/>
		<path class="st50" d="M104.5,99.7l-49.1,28.4c-5.6,3.3-12.7-0.8-12.7-7.3V63.9c0-6.5,7.1-10.6,12.7-7.3L104.5,85
			C110.2,88.3,110.2,96.4,104.5,99.7z"/>
		<path class="st51" d="M103.9,99.4l-48.3,27.9c-5.4,3.1-12.2-0.8-12.2-7.1V64.4c0-6.3,6.8-10.2,12.2-7.1l48.3,27.9
			C109.3,88.4,109.3,96.3,103.9,99.4z"/>
		<path class="st52" d="M103.2,99.1l-47.5,27.4c-5.2,3-11.8-0.8-11.8-6.8V64.9c0-6,6.5-9.8,11.8-6.8l47.5,27.4
			C108.4,88.6,108.4,96.1,103.2,99.1z"/>
	</g>
	<linearGradient id="SVGID_1_" gradientUnits="userSpaceOnUse" x1="46.7119" y1="66.4929" x2="46.7119" y2="66.4929">
		<stop  offset="0" style="stop-color:#009444;stop-opacity:0.5"/>
		<stop  offset="0.5" style="stop-color:#39B54A;stop-opacity:0"/>
	</linearGradient>
	<path class="st53" d="M46.7,66.5"/>
	
		<linearGradient id="SVGID_00000031186477199814988420000013922958364296752516_" gradientUnits="userSpaceOnUse" x1="47.8281" y1="63.1809" x2="47.8281" y2="63.1809">
		<stop  offset="0" style="stop-color:#009444;stop-opacity:0.5"/>
		<stop  offset="0.5" style="stop-color:#39B54A;stop-opacity:0"/>
	</linearGradient>
	<path style="fill:url(#SVGID_00000031186477199814988420000013922958364296752516_);" d="M47.8,63.2"/>
	
		<linearGradient id="SVGID_00000076594379887435162950000012746483298390753215_" gradientUnits="userSpaceOnUse" x1="43.4183" y1="51.4679" x2="43.4183" y2="132.627">
		<stop  offset="0.5" style="stop-color:#39B54A;stop-opacity:0"/>
		<stop  offset="1" style="stop-color:#009444;stop-opacity:0.65"/>
	</linearGradient>
	<path style="fill:url(#SVGID_00000076594379887435162950000012746483298390753215_);" d="M44.5,119.6V65.8c0-0.8,0.1-1.6,0.4-2.3
		V53.4c0,0,0-0.1,0-0.1l-1.4-0.6c-4.9-2.9-11,0.7-11,6.5v66.6c0,5.2,5,8.5,9.5,7.1c0.5-0.2,1-0.3,1.5-0.6l11-5.6
		C49.7,128.2,44.5,124.8,44.5,119.6z"/>
	
		<linearGradient id="SVGID_00000090981810028272613710000012452216330017298367_" gradientUnits="userSpaceOnUse" x1="41.9559" y1="133.7823" x2="114.1731" y2="93.1274">
		<stop  offset="0.5" style="stop-color:#009444;stop-opacity:0"/>
		<stop  offset="1" style="stop-color:#009444;stop-opacity:0.65"/>
	</linearGradient>
	<path style="fill:url(#SVGID_00000090981810028272613710000012452216330017298367_);" d="M113.2,92.1c-0.1-0.1-0.1-0.1-0.2-0.2
		l-9.4-5.4c3.7,3.2,3.4,9.3-1.1,11.9l-46.4,26.9c-1,0.6-10.6,5.5-10.6,5.5c-0.5,0.3-1,0.5-1.5,0.6v0.9c0,5.8,6.2,9.5,11.2,6.6
		l57.8-33.8C117.9,102.2,117.9,95.1,113.2,92.1z"/>
	
		<linearGradient id="SVGID_00000044874954649077985310000001665145596908536202_" gradientUnits="userSpaceOnUse" x1="43.7368" y1="51.6091" x2="111.3561" y2="89.1122">
		<stop  offset="0" style="stop-color:#009444;stop-opacity:0.65"/>
		<stop  offset="0.5" style="stop-color:#39B54A;stop-opacity:0"/>
	</linearGradient>
	<path style="fill:url(#SVGID_00000044874954649077985310000001665145596908536202_);" d="M111.9,78.8l-56.4-33
		c-4.8-2.8-10.8,0.7-10.9,6.3l0,12.3c0,0,0.1,0,0.2-0.1c0.6-5.1,6.4-8.2,11.1-5.5l37.6,21.8l17.4,9.5
		C110.9,90.1,111.9,78.8,111.9,78.8z"/>
</g>
</svg>
