<?xml version="1.0" encoding="UTF-8"?>
<svg id="Layer_1" data-name="Layer 1" xmlns="http://www.w3.org/2000/svg" viewBox="0 0 487.9 65.97">
  <defs>
    <style>
      .cls-1 {
        fill: #009bfa;
        stroke-width: 0px;
      }
    </style>
  </defs>
  <path class="cls-1" d="m38.22,4.35c-.29-.82-1.06-1.36-1.93-1.36h-13.13c-.86,0-1.64.55-1.93,1.36L1.37,59.99c-.23.63-.13,1.32.25,1.86.38.55,1.01.86,1.67.86h12.15c.88,0,1.66-.56,1.94-1.39l3.38-10.04h17.53l3.14,10c.26.85,1.06,1.44,1.96,1.44h12.61c.66,0,1.29-.32,1.67-.86s.48-1.24.25-1.86L38.22,4.35Zm-12.95,33.25l4.32-13.18,4.18,13.18h-8.5Z"/>
  <path class="cls-1" d="m78.34,2.99h-11.55c-1.13,0-2.05.92-2.05,2.05v55.64c0,1.13.92,2.05,2.05,2.05h11.55c1.13,0,2.05-.92,2.05-2.05V5.04c0-1.14-.91-2.05-2.05-2.05h0Z"/>
  <path class="cls-1" d="m156.78,39.65h-7.32c-.33,0-.6.23-.66.55-.72,3.55-1.82,6.43-3.27,8.59-2.74,4.09-6.61,6.08-11.86,6.08-5.65,0-9.95-1.95-12.78-5.78-2.87-3.9-4.34-9.09-4.34-15.41,0-7.73,1.61-13.52,4.78-17.22,3.15-3.67,7.35-5.52,12.48-5.52,4.21,0,7.51,1,9.8,2.96,2.31,1.98,3.87,4.72,4.66,8.13.07.31.35.53.66.53h7.32c.19,0,.37-.08.5-.22.13-.15.19-.33.17-.52-.44-4.85-2.66-9.24-6.58-13.03-3.95-3.81-9.54-5.74-16.63-5.74-8.31,0-14.92,2.96-19.66,8.79-4.36,5.34-6.57,12.26-6.57,20.56,0,10.93,2.95,19.15,8.77,24.42,4.44,4,9.99,6.03,16.5,6.03,7.55,0,13.65-2.47,18.12-7.36,3.71-4.04,5.93-9.11,6.59-15.07.02-.19-.04-.38-.17-.53-.13-.15-.32-.24-.51-.24h0Z"/>
  <path class="cls-1" d="m190.42,3.03c-9.55,0-16.88,3.56-21.77,10.56-3.79,5.43-5.71,12.03-5.71,19.65,0,8.42,2.25,15.51,6.69,21.06,4.99,5.77,11.93,8.69,20.64,8.69,9.31,0,16.6-3.34,21.65-9.93,4.27-5.58,6.45-12.67,6.45-21.06,0-7.77-1.9-14.24-5.65-19.25-4.82-6.45-12.32-9.71-22.29-9.71Zm14.53,45.1c-2.85,4.57-7.36,6.8-13.79,6.8s-11.61-2.04-14.57-6.05c-3-4.07-4.53-9.18-4.53-15.14,0-7.47,1.76-13.18,5.26-16.97,3.47-3.77,8.03-5.69,13.54-5.69s10.2,1.93,13.47,5.73c3.28,3.84,4.95,8.99,4.95,15.31,0,6.01-1.45,11.41-4.33,16.02Z"/>
  <path class="cls-1" d="m270.29,4.54h-7.17c-.37,0-.68.31-.68.68v42.4l-26.39-42.76c-.13-.2-.35-.33-.58-.33h-8.85c-.37,0-.68.31-.68.68v55.45c0,.37.31.68.68.68h7.18c.37,0,.68-.31.68-.68V18.3l26.8,42.74c.13.2.35.32.58.32h8.44c.37,0,.68-.31.68-.68V5.22c0-.37-.32-.68-.69-.68Z"/>
  <path class="cls-1" d="m326.11,4.54h-7.17c-.37,0-.68.31-.68.68v42.4l-26.39-42.76c-.13-.2-.35-.33-.58-.33h-8.85c-.37,0-.68.31-.68.68v55.45c0,.37.31.68.68.68h7.18c.37,0,.68-.31.68-.68V18.3l26.8,42.74c.13.2.35.32.58.32h8.44c.37,0,.68-.31.68-.68V5.22c0-.37-.31-.68-.69-.68Z"/>
  <path class="cls-1" d="m379.79,53.39h-32.8v-17.44h29.74c.37,0,.68-.31.68-.68v-6.42c0-.37-.31-.68-.68-.68h-29.74v-15.47h32.23c.37,0,.68-.31.68-.68v-6.79c0-.37-.31-.68-.68-.68h-40.24c-.37,0-.68.31-.68.68v55.45c0,.37.31.68.68.68h40.81c.37,0,.68-.31.68-.68v-6.6c0-.38-.31-.68-.69-.68Z"/>
  <path class="cls-1" d="m435.96,39.65h-7.32c-.33,0-.6.23-.67.55-.72,3.55-1.82,6.43-3.27,8.59-2.74,4.09-6.61,6.08-11.86,6.08-5.65,0-9.95-1.95-12.78-5.78-2.87-3.9-4.34-9.09-4.34-15.41,0-7.73,1.61-13.52,4.78-17.22,3.15-3.67,7.35-5.52,12.48-5.52,4.21,0,7.51,1,9.8,2.96,2.31,1.98,3.87,4.72,4.66,8.13.07.31.35.53.66.53h7.32c.19,0,.37-.08.5-.22.13-.15.19-.33.17-.52-.44-4.85-2.66-9.24-6.58-13.03-3.95-3.81-9.54-5.74-16.63-5.74-8.31,0-14.92,2.96-19.66,8.79-4.36,5.34-6.57,12.26-6.57,20.56,0,10.93,2.95,19.15,8.77,24.42,4.44,4,9.99,6.03,16.5,6.03,7.55,0,13.65-2.47,18.12-7.36,3.72-4.04,5.93-9.11,6.59-15.07.02-.19-.04-.38-.17-.53-.12-.15-.31-.24-.5-.24h0Z"/>
  <path class="cls-1" d="m485.98,4.54h-44.96c-.37,0-.68.31-.68.68v6.6c0,.37.31.68.68.68h18v48.17c0,.37.31.68.68.68h7.59c.37,0,.68-.31.68-.68V12.52h18c.37,0,.68-.31.68-.68v-6.61c0-.37-.29-.68-.67-.68Z"/>
</svg>