<?xml version="1.0" encoding="UTF-8"?>
<svg id="Layer_1" data-name="Layer 1" xmlns="http://www.w3.org/2000/svg" viewBox="0 0 455.31 65.97">
  <defs>
    <style>
      .cls-1 {
        fill: #262265;
      }

      .cls-1, .cls-2, .cls-3 {
        stroke-width: 0px;
      }

      .cls-2 {
        fill: #403f98;
      }

      .cls-3 {
        fill: #030034;
      }
    </style>
  </defs>
  <path class="cls-2" d="m24.76,2.54C13.55,2.54,4.46,11.63,4.46,22.84s9.09,20.3,20.3,20.3h.02v-20.3h21.48L64.16,2.54H24.76Z"/>
  <path class="cls-1" d="m46.28,22.84h-.02v20.3h-21.48L6.87,63.43h39.41c11.21,0,20.3-9.09,20.3-20.3h0c0-11.21-9.09-20.3-20.3-20.3Z"/>
  <g>
    <path class="cls-3" d="m91.68,41.05c1.03,4.55,4.24,6.72,9.58,6.72s7.77-2.34,7.77-5.75c0-3.73-2.06-5.53-9.75-7.35-11.02-2.62-14.09-6.55-14.09-12.37,0-7.03,5.23-12.09,15.09-12.09,10.88,0,15.25,5.99,15.85,11.98h-8.04c-.55-3.01-2.31-5.94-8.03-5.94-4.22,0-6.69,1.81-6.69,5.18s2.01,4.63,9.07,6.3c12.27,2.92,14.78,7.56,14.78,13.36,0,7.44-5.59,12.78-16.53,12.78s-16.05-5.49-17.02-12.81h8.04Z"/>
    <path class="cls-3" d="m160.98,31.87c0,11.77-6.91,22.03-20.56,22.03s-20.01-9.68-20.01-21.85,7.5-21.85,20.57-21.85c12.26,0,20,8.8,20,21.67Zm-32.32,0c0,8.59,4,15.47,12.08,15.47,8.75,0,11.99-7.28,11.99-15.36s-3.69-15.21-12.08-15.21-11.99,6.57-11.99,15.1Zm23.11,15.43l12.23,8.47-4.66,5.36-14.75-10.29,7.19-3.55Z"/>
    <path class="cls-3" d="m166.96,10.82h7.97v35.86h21.49l-.96,6.6h-28.5V10.82Z"/>
    <path class="cls-3" d="m222.3,42.47l-3.74,10.81h-7.86l14.66-42.46h9.95l15.3,42.46h-8.4l-3.91-10.81h-16Zm14.21-6.6c-3.37-9.72-5.39-15.51-6.38-19.13h-.06c-1.04,3.99-3.29,10.82-6,19.13h12.44Z"/>
    <path class="cls-3" d="m258.34,43.95c.74,2.83,2.96,4.45,6.57,4.45s5.09-1.44,5.09-3.67-1.39-3.33-6.41-4.56c-9.86-2.42-11.61-5.46-11.61-9.86s3.28-9.33,12.32-9.33,12.37,5.06,12.68,9.37h-7.29c-.34-1.46-1.37-3.88-5.73-3.88-3.41,0-4.47,1.56-4.47,3.2,0,1.84,1.09,2.73,6.43,3.99,10.21,2.39,11.84,5.86,11.84,10.51,0,5.33-4.11,9.84-13.15,9.84s-13.08-4.46-13.81-10.07h7.52Z"/>
    <path class="cls-3" d="m286.64,43.95c.74,2.83,2.96,4.45,6.57,4.45s5.09-1.44,5.09-3.67-1.39-3.33-6.41-4.56c-9.86-2.42-11.61-5.46-11.61-9.86s3.28-9.33,12.32-9.33,12.37,5.06,12.68,9.37h-7.29c-.34-1.46-1.37-3.88-5.73-3.88-3.41,0-4.47,1.56-4.47,3.2,0,1.84,1.09,2.73,6.43,3.99,10.21,2.39,11.84,5.86,11.84,10.51,0,5.33-4.11,9.84-13.15,9.84s-13.08-4.46-13.81-10.07h7.52Z"/>
    <path class="cls-3" d="m309.77,8.38h7.63v7.46h-7.63v-7.46Zm0,13.34h7.63v31.56h-7.63v-31.56Z"/>
    <path class="cls-3" d="m328.44,43.95c.74,2.83,2.96,4.45,6.57,4.45s5.09-1.44,5.09-3.67-1.39-3.33-6.41-4.56c-9.86-2.42-11.61-5.46-11.61-9.86s3.28-9.33,12.32-9.33,12.37,5.06,12.68,9.37h-7.29c-.34-1.46-1.37-3.88-5.73-3.88-3.41,0-4.47,1.56-4.47,3.2,0,1.84,1.09,2.73,6.43,3.99,10.21,2.39,11.84,5.86,11.84,10.51,0,5.33-4.11,9.84-13.15,9.84s-13.08-4.46-13.81-10.07h7.52Z"/>
    <path class="cls-3" d="m348.16,21.72h5.07v-8.8h7.63v8.8h6.45v5.86h-6.45v16.56c0,2.62.74,3.77,3.43,3.77.58,0,1.52-.02,2.25-.15v5.37c-1.6.56-3.81.59-5.49.59-5.74,0-7.82-3.04-7.82-8.47v-17.67h-5.07v-5.86Z"/>
    <path class="cls-3" d="m395.75,45.56c0,2.96.25,6.92.43,7.73h-7.29c-.24-.65-.43-2.26-.47-3.44-1.13,1.88-3.4,4.17-9.16,4.17-7.55,0-10.75-4.95-10.75-9.81,0-7.14,5.69-10.43,14.99-10.43h4.8v-2.19c0-2.43-.83-5.03-5.51-5.03-4.22,0-5.06,1.92-5.52,4.27h-7.29c.45-5.18,3.66-9.89,13.08-9.84,8.21.04,12.69,3.29,12.69,10.69v13.88Zm-7.44-6.99h-4.08c-5.61,0-8.04,1.65-8.04,5.17,0,2.62,1.69,4.7,5.08,4.7,6.24,0,7.04-4.28,7.04-8.98v-.89Z"/>
    <path class="cls-3" d="m401.75,29.67c0-2.7,0-5.58-.06-7.95h7.4c.16.86.27,3.43.29,4.42,1.14-2.23,3.7-5.15,9.42-5.15,6.2,0,10.49,4.06,10.49,12.15v20.15h-7.63v-19.27c0-3.96-1.41-6.74-5.59-6.74-4.47,0-6.68,2.89-6.68,8.73v17.29h-7.63v-23.61Z"/>
    <path class="cls-3" d="m431.7,21.72h5.07v-8.8h7.63v8.8h6.45v5.86h-6.45v16.56c0,2.62.74,3.77,3.43,3.77.58,0,1.52-.02,2.25-.15v5.37c-1.6.56-3.81.59-5.49.59-5.74,0-7.82-3.04-7.82-8.47v-17.67h-5.07v-5.86Z"/>
  </g>
</svg>