<?xml version="1.0" encoding="UTF-8"?>
<svg id="Layer_1" data-name="Layer 1" xmlns="http://www.w3.org/2000/svg" xmlns:xlink="http://www.w3.org/1999/xlink" viewBox="0 0 422 65.97">
  <defs>
    <style>
      .cls-1 {
        fill: url(#linear-gradient);
      }

      .cls-1, .cls-2, .cls-3, .cls-4, .cls-5, .cls-6, .cls-7, .cls-8, .cls-9 {
        stroke-width: 0px;
      }

      .cls-2 {
        fill: url(#linear-gradient-2);
      }

      .cls-3 {
        fill: url(#linear-gradient-3);
      }

      .cls-4 {
        fill: #2b3387;
      }

      .cls-5 {
        fill: #00bcda;
      }

      .cls-6 {
        fill: #009fde;
      }

      .cls-7 {
        fill: #00002e;
      }

      .cls-8 {
        fill: #0092a5;
      }

      .cls-9 {
        fill: #0071bb;
      }
    </style>
    <linearGradient id="linear-gradient" x1="34.24" y1="965.38" x2="68.22" y2="965.38" gradientTransform="translate(0 -953)" gradientUnits="userSpaceOnUse">
      <stop offset="0" stop-color="#00abcc"/>
      <stop offset=".45" stop-color="#00bcd9"/>
    </linearGradient>
    <linearGradient id="linear-gradient-2" x1="34.24" y1="984.91" x2="68.22" y2="984.91" gradientTransform="translate(0 -953)" gradientUnits="userSpaceOnUse">
      <stop offset="0" stop-color="#007dc4"/>
      <stop offset=".46" stop-color="#00a0de"/>
    </linearGradient>
    <linearGradient id="linear-gradient-3" x1="33.14" y1="1005.4" x2="66.9" y2="1003.5" gradientTransform="translate(0 -953)" gradientUnits="userSpaceOnUse">
      <stop offset="0" stop-color="#121154"/>
      <stop offset=".46" stop-color="#2a3487"/>
    </linearGradient>
  </defs>
  <path class="cls-4" d="m49.21,46.23c4.45-1.81,9.46-3.75,19.05-3.75v11.12c-7.37,0-10.85,1.39-14.88,2.92-4.45,1.81-9.46,3.75-19.05,3.75v-11.12c7.37.14,10.85-1.25,14.88-2.92Z"/>
  <path class="cls-1" d="m49.21,7.16c4.45-1.81,9.46-3.75,19.05-3.75v11.12c-7.37,0-10.85,1.39-14.88,2.92-4.59,1.81-9.59,3.89-19.19,3.89v-11.12c7.51-.14,10.98-1.53,15.02-3.06Z"/>
  <path class="cls-2" d="m49.21,26.77c4.45-1.81,9.46-3.75,19.05-3.75v11.12c-7.37,0-10.85,1.39-14.88,2.92-4.59,1.81-9.59,3.75-19.19,3.75v-11.12c7.51,0,10.98-1.39,15.02-2.92Z"/>
  <path class="cls-3" d="m49.21,46.23c4.45-1.81,9.46-3.75,19.05-3.75v11.12c-7.37,0-10.85,1.39-14.88,2.92-4.45,1.81-9.46,3.75-19.05,3.75v-11.12c7.37.14,10.85-1.25,14.88-2.92Z"/>
  <path class="cls-9" d="m34.2,35.39v5.42l4.03-5.56s-3.06-.56-4.03.14Z"/>
  <path class="cls-6" d="m19.18,27.88c4.45-1.81,9.46-3.75,19.05-3.75v11.12c-7.37,0-10.85,1.39-14.88,2.92-4.45,1.81-9.46,3.75-19.05,3.75v-11.12c7.37,0,10.85-1.39,14.88-2.92Z"/>
  <path class="cls-7" d="m34.2,54.99v5.42l4.03-5.56s-3.06-.56-4.03.14Z"/>
  <path class="cls-4" d="m19.18,47.49c4.45-1.81,9.46-3.75,19.05-3.75v11.12c-7.37,0-10.85,1.39-14.88,2.92-4.45,1.81-9.46,3.75-19.05,3.75v-11.12c7.37,0,10.85-1.39,14.88-2.92Z"/>
  <path class="cls-8" d="m34.2,15.92v5.42l4.03-5.56s-3.06-.7-4.03.14Z"/>
  <path class="cls-5" d="m19.18,8.27c4.45-1.81,9.46-3.75,19.05-3.75v11.12c-7.37,0-10.85,1.39-14.88,2.92-4.45,1.81-9.46,3.75-19.05,3.75v-11.12c7.37.14,10.85-1.25,14.88-2.92Z"/>
  <g>
    <path class="cls-4" d="m124.3,28.71c0,2.78-.42,5.42-1.11,7.65-.83,2.22-1.95,4.17-3.48,5.7s-3.34,2.78-5.7,3.62c-2.22.83-4.87,1.25-7.79,1.25h-12.38V10.78h12.38c2.92,0,5.56.42,7.79,1.25,2.22.83,4.17,1.95,5.7,3.62,1.53,1.53,2.64,3.48,3.48,5.7.7,2.09,1.11,4.59,1.11,7.37Zm-7.93,0c0-4.17-.83-7.23-2.36-9.04-1.67-1.95-4.31-2.92-7.93-2.92h-4.45v23.92h4.45c3.62,0,6.26-.97,7.93-2.92,1.53-1.81,2.36-4.87,2.36-9.04Z"/>
    <path class="cls-4" d="m134.73,35.25c.28,2.36,1.11,4.03,2.36,5.01,1.25.97,3.06,1.53,5.28,1.53,1.25,0,2.36-.14,3.48-.42,1.11-.28,2.09-.83,3.06-1.39l2.5,4.45c-2.5,2.09-5.7,3.2-9.87,3.2-2.36,0-4.45-.42-6.26-1.11s-3.2-1.67-4.45-2.92c-1.11-1.25-2.09-2.78-2.64-4.45s-.83-3.62-.83-5.56c0-2.22.42-4.31,1.11-5.98.7-1.67,1.67-3.2,2.92-4.31,1.25-1.11,2.64-2.09,4.31-2.64s3.34-.83,5.14-.83,3.48.28,4.87.83,2.64,1.39,3.62,2.5,1.67,2.36,2.22,3.75.7,3.06.7,4.87c0,.56,0,1.25-.14,1.81,0,.7-.14,1.25-.28,1.81h-17.1v-.14Zm6.12-10.15c-1.67,0-3.06.56-4.03,1.53-1.11.97-1.67,2.36-1.81,4.17h10.71v-.7c0-1.67-.42-2.78-1.25-3.75-1.11-.83-2.22-1.25-3.62-1.25Z"/>
    <path class="cls-4" d="m162.26,35.25c.28,2.36,1.11,4.03,2.36,5.01,1.25.97,3.06,1.53,5.28,1.53,1.25,0,2.36-.14,3.48-.42,1.11-.28,2.09-.83,3.06-1.39l2.5,4.45c-2.5,2.09-5.7,3.2-9.87,3.2-2.36,0-4.45-.42-6.26-1.11s-3.2-1.67-4.45-2.92c-1.11-1.25-2.09-2.78-2.64-4.45s-.83-3.62-.83-5.56c0-2.22.42-4.31,1.11-5.98.7-1.67,1.67-3.2,2.92-4.31,1.25-1.11,2.64-2.09,4.31-2.64s3.34-.83,5.14-.83,3.48.28,4.87.83,2.64,1.39,3.62,2.5,1.67,2.36,2.22,3.75.7,3.06.7,4.87c0,.56,0,1.25-.14,1.81,0,.7-.14,1.25-.28,1.81h-17.1v-.14Zm6.12-10.15c-1.67,0-3.06.56-4.03,1.53-1.11.97-1.67,2.36-1.81,4.17h10.71v-.7c0-1.67-.42-2.78-1.25-3.75-.97-.83-2.22-1.25-3.62-1.25Z"/>
    <path class="cls-4" d="m191.04,24.82c.83-1.81,2.09-3.06,3.75-3.89,1.67-.83,3.48-1.25,5.28-1.25,3.2,0,5.7,1.11,7.65,3.34s2.92,5.56,2.92,10.01c0,2.09-.28,4.03-.7,5.84-.56,1.81-1.25,3.34-2.22,4.59-.97,1.25-2.09,2.22-3.48,3.06-1.39.7-2.92,1.11-4.73,1.11-1.53,0-2.92-.28-4.45-.83-1.53-.56-2.64-1.53-3.62-3.06v14.18h-7.51V20.37h4.31c1.81,0,2.64.83,2.64,2.36l.14,2.09h0Zm.14,9.18c0,2.5.56,4.31,1.53,5.7.97,1.39,2.5,2.09,4.45,2.09,1.11,0,1.95-.28,2.64-.7s1.39-.97,1.81-1.81c.42-.7.83-1.67,1.11-2.64.28-.97.28-2.09.28-3.2,0-2.64-.42-4.59-1.39-5.98-.97-1.39-2.36-2.09-4.31-2.09s-3.48.7-4.59,2.22c-.97,1.67-1.53,3.75-1.53,6.4Z"/>
    <path class="cls-4" d="m239.85,16.06c-2.09,0-3.75.42-4.87,1.11s-1.67,1.81-1.67,3.34c0,1.25.42,2.22,1.25,2.92.83.7,1.95,1.25,3.48,1.67l5.42,1.67c2.92.83,5.14,2.09,6.67,3.48,1.53,1.53,2.22,3.48,2.22,6.12,0,1.81-.42,3.34-1.11,4.73s-1.67,2.64-2.92,3.62c-1.25.97-2.78,1.67-4.59,2.22-1.81.56-3.75.83-5.84.83-2.5,0-5.01-.42-7.37-1.11-2.36-.83-4.45-1.95-6.4-3.48l3.34-5.14c1.53,1.11,3.2,1.95,4.87,2.64s3.48.97,5.42.97c2.09,0,3.75-.42,4.87-1.11,1.25-.83,1.81-1.95,1.81-3.48,0-1.25-.42-2.09-1.11-2.78-.83-.7-1.95-1.11-3.48-1.67l-5.84-1.53c-2.64-.7-4.73-1.95-6.26-3.62s-2.22-3.75-2.22-6.4c0-1.67.28-3.2.97-4.59s1.67-2.5,2.78-3.48c1.25-.97,2.64-1.67,4.31-2.09,1.67-.56,3.62-.7,5.7-.7,2.36,0,4.73.28,6.95.97s4.17,1.67,5.7,2.92l-2.92,4.87c-2.78-2.09-5.7-2.92-9.18-2.92Z"/>
    <path class="cls-4" d="m262.52,35.25c.28,2.36,1.11,4.03,2.36,5.01s3.06,1.53,5.28,1.53c1.25,0,2.36-.14,3.48-.42,1.11-.28,2.09-.83,3.06-1.39l2.5,4.45c-2.5,2.09-5.7,3.2-9.87,3.2-2.36,0-4.45-.42-6.26-1.11s-3.2-1.67-4.45-2.92c-1.11-1.25-2.09-2.78-2.64-4.45s-.83-3.62-.83-5.56c0-2.22.42-4.31,1.11-5.98.7-1.67,1.67-3.2,2.92-4.31,1.25-1.11,2.64-2.09,4.31-2.64,1.67-.56,3.34-.83,5.14-.83s3.48.28,4.87.83,2.64,1.39,3.62,2.5c.97,1.11,1.67,2.36,2.22,3.75.56,1.39.7,3.06.7,4.87,0,.56,0,1.25-.14,1.81,0,.7-.14,1.25-.28,1.81h-17.1v-.14h0Zm6.12-10.15c-1.67,0-3.06.56-4.03,1.53-1.11.97-1.67,2.36-1.81,4.17h10.71v-.7c0-1.67-.42-2.78-1.25-3.75-.97-.83-2.22-1.25-3.62-1.25Z"/>
    <path class="cls-4" d="m282.26,39.42c0-2.78.97-4.87,3.06-6.26,1.95-1.39,4.73-2.22,8.2-2.22h4.31v-1.11c0-1.53-.42-2.64-1.25-3.34-.83-.7-2.09-1.11-3.89-1.11-1.39,0-2.64.14-3.89.56-1.25.42-2.36.97-3.34,1.67l-2.5-4.31c1.53-1.11,3.2-1.95,5.01-2.64s3.89-.97,5.98-.97c3.62,0,6.4.83,8.2,2.64,1.81,1.81,2.78,4.31,2.78,7.51v10.15c0,.83.14,1.39.42,1.67s.83.42,1.53.42h.56v4.59c-.42.14-.83.28-1.39.42s-1.11.14-1.95.14c-1.53,0-2.64-.28-3.48-.97s-1.25-1.53-1.39-2.78c-.7,1.25-1.67,2.22-3.2,3.06-1.53.7-3.2,1.11-5.01,1.11-2.64,0-4.73-.7-6.4-2.09-1.53-1.67-2.36-3.62-2.36-6.12Zm10.71,2.78c1.53,0,2.64-.56,3.48-1.53s1.25-2.36,1.25-4.17v-1.39h-3.48c-1.53,0-2.78.28-3.48.97-.83.56-1.25,1.53-1.25,2.78,0,1.11.28,1.95.97,2.5.56.56,1.39.83,2.5.83Z"/>
    <path class="cls-4" d="m310.63,20.37h4.31c1.81,0,2.64.83,2.64,2.36v3.2c.56-1.81,1.53-3.2,2.78-4.31,1.25-1.11,2.92-1.67,4.87-1.67.83,0,1.53.14,2.09.28v6.12h-1.53c-2.64,0-4.59.7-5.84,2.09s-1.95,3.62-1.95,6.81v11.54h-7.51l.14-26.42h0Z"/>
    <path class="cls-4" d="m346.78,15.09h-1.25c-1.95,0-3.34.28-4.17.83-.83.56-1.25,1.81-1.25,3.48v.83h6.4v5.7h-6.4v20.86h-7.51v-20.86h-3.89v-5.7h3.89v-1.95c0-3.06.83-5.42,2.64-6.95,1.81-1.53,4.31-2.36,7.79-2.36.56,0,1.25,0,1.95.14.7,0,1.25.14,1.81.28v5.7h0Z"/>
    <path class="cls-4" d="m348.59,9.53h7.51v6.81h-7.51v-6.81Zm7.51,37.4h-7.51v-26.56h7.51v26.56Z"/>
    <path class="cls-4" d="m361.8,20.37h4.31c1.81,0,2.64.83,2.64,2.36v1.95c.7-1.53,1.81-2.64,3.34-3.62,1.53-.83,3.34-1.39,5.42-1.39,2.78,0,5.01.83,6.54,2.5,1.53,1.67,2.36,4.17,2.36,7.37v17.38h-7.51v-16.83c0-3.06-1.39-4.59-4.03-4.59-1.67,0-3.06.56-4.03,1.81-.97,1.25-1.53,2.92-1.53,5.14v14.46h-7.51v-26.56h0Z"/>
    <path class="cls-4" d="m389.75,50.68c0-1.53.42-2.92,1.25-3.89s2.09-1.67,3.48-2.09c-1.25-.28-2.09-.83-2.78-1.67-.56-.83-.83-1.67-.83-2.78,0-1.39.42-2.36,1.25-3.06s1.81-1.25,2.92-1.39c-1.11-.83-1.95-1.81-2.64-3.06-.56-1.25-.97-2.5-.97-3.89s.28-2.64.83-3.75c.56-1.11,1.39-2.09,2.36-2.92s2.22-1.39,3.62-1.81c1.39-.42,2.92-.7,4.59-.7,2.22,0,4.17.42,5.98,1.11h8.2v4.45h-3.89c.97.97,1.39,2.36,1.39,4.17,0,2.64-1.11,4.87-3.2,6.26-2.09,1.53-4.87,2.22-8.34,2.22-1.67,0-3.06-.14-4.03-.42-1.11.28-1.67,1.11-1.67,2.22,0,.7.28,1.25.83,1.67.56.42,1.39.56,2.36.56h5.56c3.34,0,5.84.56,7.65,1.81,1.81,1.25,2.64,3.06,2.64,5.42,0,1.39-.28,2.78-.97,3.89s-1.67,2.09-2.92,2.92-2.78,1.39-4.59,1.81-3.75.7-5.98.7c-3.89,0-6.95-.7-9.18-2.09-1.81-1.39-2.92-3.2-2.92-5.7Zm11.54-3.89c-1.39,0-2.5.28-3.34.83-.83.56-1.11,1.39-1.11,2.5,0,1.25.56,2.22,1.67,2.78,1.11.7,2.64.97,4.59.97,2.09,0,3.62-.28,4.73-.97s1.67-1.67,1.67-3.06c0-.97-.42-1.81-1.11-2.22-.7-.56-1.95-.7-3.62-.7l-3.48-.14h0Zm6.54-17.94c0-1.39-.42-2.5-1.25-3.2-.83-.83-1.95-1.25-3.48-1.25s-2.64.42-3.48,1.25-1.25,1.95-1.25,3.2c0,1.39.42,2.5,1.25,3.2.83.83,1.95,1.25,3.48,1.25s2.64-.42,3.48-1.25c.83-.7,1.25-1.81,1.25-3.2Z"/>
  </g>
</svg>